<svg width="11" height="13" viewBox="0 0 11 13" fill="none" xmlns="http://www.w3.org/2000/svg">
    <path d="M1.57143 6.19531H1.9029C2.50937 7.51953 3.88929 8.44531 5.5 8.44531C7.11071 8.44531 8.49063 7.51953 9.0971 6.19531H9.42857C9.64464 6.19531 9.82143 6.19531 9.82143 5.82031V3.57031C9.82143 3.19531 9.64464 3.19531 9.42857 3.19531H9.0971C8.49063 1.87109 7.11071 0.945312 5.5 0.945312C3.88929 0.945312 2.50937 1.87109 1.9029 3.19531H1.57143C1.35536 3.19531 1.17857 3.19531 1.17857 3.57031V5.82031C1.17857 6.19531 1.35536 6.19531 1.57143 6.19531ZM2.55357 4.13281C2.55357 3.61484 3.08147 3.19531 3.73214 3.19531H7.26786C7.91853 3.19531 8.44643 3.61484 8.44643 4.13281V4.69531C8.44643 5.9375 8.5 6.94531 6.5 7.44531L6 7.5H5.5H5L4.5 7.44531C3 6.94531 2.55357 5.9375 2.55357 4.69531V4.13281ZM8.04375 8.47812C7.3096 8.93047 6.43795 8.94531 5.5 8.94531C4.56205 8.94531 3.6904 8.93047 2.95625 8.47812C1.5 8.94531 0.5 9.94531 0 11.5953V12.4453C0 12.9453 0 12.9453 1.17857 12.9453H3.14286V11.4453C3.14286 10.6953 3.49397 10.6953 3.92857 10.6953H7.07143C7.50603 10.6953 7.85714 10.6953 7.85714 11.4453V12.9453H9.82143C11 12.9453 11 12.9453 11 12.4453V11.5953C10.5 9.94531 9.5 8.94531 8.04375 8.47812ZM6.67857 11.4453C6.28571 11.4453 6.28571 11.6141 6.28571 11.8203C6.28571 12.0266 6.4625 12.1953 6.67857 12.1953C6.89464 12.1953 7.07143 12.0266 7.07143 11.8203C7.07143 11.6141 7.07143 11.4453 6.67857 11.4453ZM4.32143 11.4453C4.10536 11.4453 3.92857 11.6141 3.92857 11.8203V12.9453H4.71429V11.8203C4.71429 11.6141 4.5375 11.4453 4.32143 11.4453Z" fill="#CFD0D8"/>
    <path d="M6.28571 4.74751C6.28571 4.54126 6.28571 4.64062 6.67857 4.64062C7.07143 4.64062 7.07143 4.54126 7.07143 4.74751C7.07143 4.82812 6.89464 4.82812 6.67857 4.82812C6.4625 4.82812 6.28571 4.82812 6.28571 4.74751Z" fill="#CFD0D8"/>
    <path d="M5.35156 6.4572C5.35156 6.25095 5.40827 6.25781 5.57456 6.25781C5.74085 6.25781 5.79688 6.25095 5.79688 6.4572C5.79688 6.66345 5.79063 6.71094 5.57456 6.71094C5.35849 6.71094 5.35156 6.66345 5.35156 6.4572Z" fill="#CFD0D8"/>
    <path d="M3.92857 4.74751C3.92857 4.54126 3.92857 4.64062 4.32143 4.64062C4.71429 4.64062 4.71429 4.54126 4.71429 4.74751C4.71429 4.82812 4.5375 4.82812 4.32143 4.82812C4.10536 4.82812 3.92857 4.82812 3.92857 4.74751Z" fill="#CFD0D8"/>
    <path d="M9.5 5L7 6.5H5.5" stroke="#CFD0D8" stroke-width="0.2"/>
</svg>
